<svg width="25" height="26" viewBox="0 0 25 26" fill="none" xmlns="http://www.w3.org/2000/svg">
<circle cx="12.0754" cy="13.0276" r="12.0754" fill="#D9D9D9"/>
<path d="M15.3436 13.0278L10.478 18.0281C10.4379 18.0684 10.4063 18.1162 10.3848 18.1688C10.3634 18.2214 10.3526 18.2778 10.353 18.3346C10.3535 18.3914 10.3652 18.4476 10.3876 18.4998C10.4099 18.5521 10.4423 18.5994 10.4831 18.639C10.5238 18.6786 10.572 18.7098 10.6248 18.7307C10.6777 18.7516 10.7341 18.7617 10.7909 18.7607C10.8477 18.7596 10.9038 18.7472 10.9558 18.7244C11.0078 18.7015 11.0547 18.6685 11.0939 18.6274L16.2506 13.3275C16.3286 13.2472 16.3723 13.1397 16.3723 13.0278C16.3723 12.9159 16.3286 12.8084 16.2506 12.7282L11.0939 7.42825C11.0547 7.3871 11.0078 7.35414 10.9558 7.33126C10.9038 7.30838 10.8477 7.29604 10.7909 7.29496C10.7341 7.29388 10.6777 7.30407 10.6248 7.32495C10.572 7.34584 10.5238 7.37699 10.4831 7.41662C10.4423 7.45624 10.4099 7.50355 10.3876 7.5558C10.3652 7.60805 10.3535 7.66422 10.353 7.72103C10.3526 7.77785 10.3634 7.8342 10.3848 7.88681C10.4063 7.93943 10.4379 7.98727 10.478 8.02757L15.3436 13.0278Z" fill="black"/>
</svg>
