<svg width="25" height="26" viewBox="0 0 25 26" fill="none" xmlns="http://www.w3.org/2000/svg">
<circle cx="12.4246" cy="13.0276" r="12.0754" fill="#D9D9D9"/>
<path d="M8.86454 13.0279L13.7301 8.02761C13.7702 7.98731 13.8019 7.93947 13.8233 7.88686C13.8448 7.83424 13.8556 7.77789 13.8551 7.72107C13.8546 7.66426 13.8429 7.6081 13.8206 7.55584C13.7982 7.50359 13.7658 7.45628 13.7251 7.41666C13.6843 7.37703 13.6362 7.34588 13.5833 7.325C13.5305 7.30411 13.474 7.29392 13.4172 7.295C13.3604 7.29608 13.3044 7.30842 13.2524 7.3313C13.2003 7.35418 13.1534 7.38714 13.1142 7.42829L7.95754 12.7282C7.87949 12.8084 7.83582 12.9159 7.83582 13.0279C7.83582 13.1398 7.87949 13.2473 7.95754 13.3275L13.1142 18.6274C13.1534 18.6686 13.2003 18.7015 13.2524 18.7244C13.3044 18.7473 13.3604 18.7596 13.4172 18.7607C13.474 18.7618 13.5305 18.7516 13.5833 18.7307C13.6362 18.7098 13.6843 18.6787 13.7251 18.639C13.7658 18.5994 13.7982 18.5521 13.8206 18.4999C13.8429 18.4476 13.8546 18.3914 13.8551 18.3346C13.8556 18.2778 13.8448 18.2215 13.8233 18.1688C13.8019 18.1162 13.7702 18.0684 13.7301 18.0281L8.86454 13.0279Z" fill="black"/>
</svg>
