<svg width="17" height="17" viewBox="0 0 17 17" fill="none" xmlns="http://www.w3.org/2000/svg">
<g clip-path="url(#clip0_48_65)">
<path d="M12.4743 10.7152C13.4426 9.39388 13.8763 7.75568 13.6886 6.12834C13.5009 4.501 12.7057 3.00453 11.4621 1.93832C10.2184 0.872115 8.61805 0.314798 6.98113 0.377871C5.34422 0.440944 3.79148 1.11976 2.63357 2.2785C1.47565 3.43725 0.79795 4.99047 0.736048 6.62743C0.674146 8.26439 1.23261 9.86435 2.29971 11.1072C3.36681 12.3501 4.86384 13.1443 6.49132 13.3308C8.11879 13.5173 9.75668 13.0824 11.0773 12.1132H11.0763C11.1063 12.1532 11.1383 12.1912 11.1743 12.2282L15.0243 16.0782C15.2118 16.2658 15.4662 16.3713 15.7314 16.3714C15.9967 16.3715 16.2512 16.2662 16.4388 16.0787C16.6264 15.8912 16.7319 15.6368 16.732 15.3715C16.7321 15.1063 16.6268 14.8518 16.4393 14.6642L12.5893 10.8142C12.5535 10.778 12.5151 10.7456 12.4743 10.7152ZM12.7323 6.87119C12.7323 7.59346 12.59 8.30866 12.3136 8.97595C12.0372 9.64324 11.6321 10.2496 11.1214 10.7603C10.6107 11.271 10.0043 11.6761 9.33706 11.9525C8.66977 12.2289 7.95457 12.3712 7.2323 12.3712C6.51003 12.3712 5.79483 12.2289 5.12754 11.9525C4.46025 11.6761 3.85393 11.271 3.34321 10.7603C2.83249 10.2496 2.42736 9.64324 2.15096 8.97595C1.87456 8.30866 1.7323 7.59346 1.7323 6.87119C1.7323 5.4125 2.31176 4.01356 3.34321 2.98211C4.37466 1.95066 5.77361 1.37119 7.2323 1.37119C8.69099 1.37119 10.0899 1.95066 11.1214 2.98211C12.1528 4.01356 12.7323 5.4125 12.7323 6.87119Z" fill="#5C6375"/>
</g>
<defs>
<clipPath id="clip0_48_65">
<rect width="16" height="16" fill="white" transform="translate(0.7323 0.371216)"/>
</clipPath>
</defs>
</svg>
