<svg width="31" height="31" viewBox="0 0 31 31" fill="none" xmlns="http://www.w3.org/2000/svg">
<path d="M11.0862 25.4719C11.604 25.4719 12.0237 25.0522 12.0237 24.5344C12.0237 24.0167 11.604 23.5969 11.0862 23.5969C10.5685 23.5969 10.1487 24.0167 10.1487 24.5344C10.1487 25.0522 10.5685 25.4719 11.0862 25.4719Z" stroke="#0A0D14" stroke-width="1.8" stroke-linecap="round" stroke-linejoin="round"/>
<path d="M24.2112 25.4719C24.729 25.4719 25.1487 25.0522 25.1487 24.5344C25.1487 24.0167 24.729 23.5969 24.2112 23.5969C23.6935 23.5969 23.2737 24.0167 23.2737 24.5344C23.2737 25.0522 23.6935 25.4719 24.2112 25.4719Z" stroke="#0A0D14" stroke-width="1.8" stroke-linecap="round" stroke-linejoin="round"/>
<path d="M3.58624 4.84692H7.33624L10.1487 20.7844H25.1487" stroke="#0A0D14" stroke-width="1.8" stroke-linecap="round" stroke-linejoin="round"/>
<path d="M10.1487 17.0344H24.7644C24.8728 17.0345 24.9779 16.997 25.0617 16.9283C25.1456 16.8596 25.2031 16.764 25.2243 16.6577L26.9118 8.22017C26.9254 8.15213 26.9238 8.08192 26.907 8.0146C26.8902 7.94728 26.8586 7.88454 26.8146 7.83089C26.7706 7.77724 26.7152 7.73404 26.6525 7.70438C26.5898 7.67473 26.5213 7.65938 26.4519 7.65942H8.27374" stroke="#0A0D14" stroke-width="1.8" stroke-linecap="round" stroke-linejoin="round"/>
</svg>
