<svg width="29" height="29" viewBox="0 0 29 29" fill="none" xmlns="http://www.w3.org/2000/svg">
<path d="M14.8904 21.8011L14.7737 21.9178L14.6454 21.8011C9.10374 16.7728 5.4404 13.4478 5.4404 10.0761C5.4404 7.74276 7.1904 5.99276 9.52374 5.99276C11.3204 5.99276 13.0704 7.15942 13.6887 8.74609H15.8587C16.4771 7.15942 18.2271 5.99276 20.0237 5.99276C22.3571 5.99276 24.1071 7.74276 24.1071 10.0761C24.1071 13.4478 20.4437 16.7728 14.8904 21.8011ZM20.0237 3.65942C17.9937 3.65942 16.0454 4.60442 14.7737 6.08609C13.5021 4.60442 11.5537 3.65942 9.52374 3.65942C5.9304 3.65942 3.10707 6.47109 3.10707 10.0761C3.10707 14.4744 7.07374 18.0794 13.0821 23.5278L14.7737 25.0678L16.4654 23.5278C22.4737 18.0794 26.4404 14.4744 26.4404 10.0761C26.4404 6.47109 23.6171 3.65942 20.0237 3.65942Z" fill="#0A0D14"/>
</svg>
