<svg width="51" height="51" viewBox="0 0 51 51" fill="none" xmlns="http://www.w3.org/2000/svg">
<g clip-path="url(#clip0_66_58)">
<path d="M23.1604 0.844971C19.0937 0.844971 15.3271 1.86164 11.8604 3.89497C8.46039 5.89497 5.77705 8.5783 3.81039 11.945C1.74372 15.445 0.710388 19.2283 0.710388 23.295C0.710388 27.2616 1.69372 30.9616 3.66039 34.395C5.56039 37.695 8.14372 40.3616 11.4104 42.395C14.7771 44.4616 18.4271 45.5616 22.3604 45.695V50.845L28.3104 44.895L22.3604 38.995V44.095C18.7271 43.9616 15.3604 42.9283 12.2604 40.995C9.22705 39.1283 6.82705 36.645 5.06039 33.545C3.26039 30.3783 2.36039 26.9616 2.36039 23.295C2.36039 19.5283 3.31039 16.0283 5.21039 12.795C7.04372 9.6283 9.52705 7.1283 12.6604 5.29497C15.8937 3.39497 19.3937 2.44497 23.1604 2.44497C26.9271 2.44497 30.4271 3.39497 33.6604 5.29497C36.8271 7.1283 39.3271 9.6283 41.1604 12.795C43.0604 16.0283 44.0104 19.5283 44.0104 23.295H45.6104C45.6104 19.2283 44.5771 15.445 42.5104 11.945C40.5437 8.5783 37.8604 5.89497 34.4604 3.89497C30.9937 1.86164 27.2271 0.844971 23.1604 0.844971ZM23.9604 42.845L26.0104 44.895L23.9604 46.945V42.845ZM11.1604 11.245V35.295H35.1604V11.245H11.1604ZM20.7604 12.845H25.5604V16.045H20.7604V12.845ZM33.5604 33.695H12.7604V12.845H19.1604V17.645H27.1604V12.845H33.5604V33.695Z" fill="#0A0D14"/>
</g>
<defs>
<clipPath id="clip0_66_58">
<rect width="50" height="50" fill="white" transform="matrix(1 0 0 -1 0.695374 50.845)"/>
</clipPath>
</defs>
</svg>
