<svg width="51" height="51" viewBox="0 0 51 51" fill="none" xmlns="http://www.w3.org/2000/svg">
<g clip-path="url(#clip0_66_56)">
<path d="M37.1578 44.3949C37.1578 44.6283 37.0828 44.8199 36.9328 44.9699C36.7828 45.1199 36.6078 45.1949 36.4078 45.1949H3.9578C2.89113 45.1949 1.97447 44.8116 1.2078 44.0449C0.441134 43.2783 0.0578003 42.3616 0.0578003 41.2949V7.29494C0.0578003 6.22828 0.441134 5.31161 1.2078 4.54494C1.97447 3.77828 2.89113 3.39495 3.9578 3.39495H37.9578C39.0245 3.39495 39.9411 3.77828 40.7078 4.54494C41.4745 5.31161 41.8578 6.22828 41.8578 7.29494V17.9449C41.8578 18.1449 41.7828 18.3199 41.6328 18.4699C41.4828 18.6199 41.2911 18.6949 41.0578 18.6949C40.8245 18.6949 40.6411 18.6199 40.5078 18.4699C40.3745 18.3199 40.3078 18.1449 40.3078 17.9449V7.29494C40.3078 6.62828 40.0828 6.06995 39.6328 5.61995C39.1828 5.16994 38.6245 4.94495 37.9578 4.94495H15.6578V13.7449C15.6578 14.0449 15.7911 14.2699 16.0578 14.4199C16.3245 14.5699 16.5745 14.5783 16.8078 14.4449L19.9078 12.7949C20.6411 12.4283 21.3745 12.4283 22.1078 12.7949L25.2078 14.4449C25.4745 14.5783 25.7328 14.5699 25.9828 14.4199C26.2328 14.2699 26.3578 14.0449 26.3578 13.7449V7.89495C26.3578 7.66161 26.4328 7.46994 26.5828 7.31995C26.7328 7.16994 26.9245 7.09494 27.1578 7.09494C27.3911 7.09494 27.5745 7.16994 27.7078 7.31995C27.8411 7.46994 27.9078 7.66161 27.9078 7.89495V13.7449C27.9078 14.3449 27.7328 14.8533 27.3828 15.2699C27.0328 15.6866 26.5911 15.9533 26.0578 16.0699C25.5245 16.1866 24.9911 16.1116 24.4578 15.8449L21.3578 14.1949C21.2578 14.1283 21.1411 14.0949 21.0078 14.0949C20.8745 14.0949 20.7578 14.1283 20.6578 14.1949L17.5578 15.8449C17.0578 16.1116 16.5328 16.1866 15.9828 16.0699C15.4328 15.9533 14.9828 15.6783 14.6328 15.2449C14.2828 14.8116 14.1078 14.3116 14.1078 13.7449V4.94495H3.9578C3.32447 4.94495 2.77447 5.16994 2.3078 5.61995C1.84113 6.06995 1.6078 6.62828 1.6078 7.29494V41.2949C1.6078 41.9283 1.84113 42.4783 2.3078 42.9449C2.77447 43.4116 3.32447 43.6449 3.9578 43.6449H36.4078C36.6078 43.6449 36.7828 43.7199 36.9328 43.8699C37.0828 44.0199 37.1578 44.1949 37.1578 44.3949ZM45.1078 34.5449L40.5578 40.5949C40.1578 41.1283 39.6411 41.4949 39.0078 41.6949C38.3745 41.8949 37.7411 41.8949 37.1078 41.6949C36.4745 41.4949 35.9578 41.1283 35.5578 40.5949L30.9578 34.5449C30.0578 33.3783 29.4911 32.0866 29.2578 30.6699C29.0245 29.2533 29.1245 27.8616 29.5578 26.4949C29.9911 25.1283 30.7245 23.9283 31.7578 22.8949C32.8911 21.7616 34.2245 20.9866 35.7578 20.5699C37.2911 20.1533 38.8245 20.1533 40.3578 20.5699C41.8911 20.9866 43.2245 21.7616 44.3578 22.8949C45.3911 23.9283 46.1161 25.1283 46.5328 26.4949C46.9495 27.8616 47.0411 29.2533 46.8078 30.6699C46.5745 32.0866 46.0078 33.3783 45.1078 34.5449ZM38.0578 21.8449C36.5911 21.8449 35.2578 22.2283 34.0578 22.9949C32.9578 23.7283 32.1078 24.7033 31.5078 25.9199C30.9078 27.1366 30.6411 28.4116 30.7078 29.7449C30.8411 31.1449 31.3411 32.4283 32.2078 33.5949L36.8078 39.6449C37.1078 40.0449 37.5161 40.2449 38.0328 40.2449C38.5495 40.2449 38.9745 40.0449 39.3078 39.6449L43.8578 33.5949C44.7245 32.4283 45.2245 31.1449 45.3578 29.7449C45.4578 28.4116 45.2078 27.1366 44.6078 25.9199C44.0078 24.7033 43.1411 23.7283 42.0078 22.9949C40.8411 22.2283 39.5245 21.8449 38.0578 21.8449ZM41.3078 25.8949C42.2411 26.8283 42.6828 27.9199 42.6328 29.1699C42.5828 30.4199 42.1328 31.4949 41.2828 32.3949C40.4328 33.2949 39.3495 33.7449 38.0328 33.7449C36.7161 33.7449 35.6328 33.2949 34.7828 32.3949C33.9328 31.4949 33.4911 30.4199 33.4578 29.1699C33.4245 27.9199 33.8661 26.8449 34.7828 25.9449C35.6995 25.0449 36.7911 24.5949 38.0578 24.5949C39.3245 24.5949 40.4078 25.0283 41.3078 25.8949ZM38.0578 26.1449C37.1911 26.1449 36.4745 26.4449 35.9078 27.0449C35.3411 27.6449 35.0495 28.3533 35.0328 29.1699C35.0161 29.9866 35.3078 30.6949 35.9078 31.2949C36.5078 31.8949 37.2245 32.1949 38.0578 32.1949C38.8911 32.1949 39.6078 31.8949 40.2078 31.2949C40.8078 30.6949 41.0995 29.9866 41.0828 29.1699C41.0661 28.3533 40.7745 27.6449 40.2078 27.0449C39.6411 26.4449 38.9245 26.1449 38.0578 26.1449ZM14.3078 33.6949C14.3078 33.4616 14.2328 33.2699 14.0828 33.1199C13.9328 32.9699 13.7411 32.8949 13.5078 32.8949H7.9578C7.7578 32.8949 7.5828 32.9699 7.4328 33.1199C7.2828 33.2699 7.2078 33.4616 7.2078 33.6949C7.2078 33.9283 7.2828 34.1199 7.4328 34.2699C7.5828 34.4199 7.7578 34.4949 7.9578 34.4949H13.5078C13.7411 34.4949 13.9328 34.4199 14.0828 34.2699C14.2328 34.1199 14.3078 33.9283 14.3078 33.6949ZM13.9078 38.8449C14.1078 38.7449 14.2328 38.5866 14.2828 38.3699C14.3328 38.1533 14.3078 37.9533 14.2078 37.7699C14.1078 37.5866 13.9578 37.4616 13.7578 37.3949C13.5578 37.3283 13.3578 37.3533 13.1578 37.4699C12.9578 37.5866 12.8245 37.7449 12.7578 37.9449C12.6911 38.1449 12.7161 38.3366 12.8328 38.5199C12.9495 38.7033 13.1078 38.8283 13.3078 38.8949C13.5078 38.9616 13.7078 38.9449 13.9078 38.8449ZM7.9578 37.3949C7.7578 37.3949 7.5828 37.4699 7.4328 37.6199C7.2828 37.7699 7.2078 37.9449 7.2078 38.1449C7.2078 38.3449 7.2828 38.5283 7.4328 38.6949C7.5828 38.8616 7.7578 38.9449 7.9578 38.9449H10.5078C10.7078 38.9449 10.8828 38.8699 11.0328 38.7199C11.1828 38.5699 11.2578 38.3783 11.2578 38.1449C11.2578 37.9116 11.1828 37.7283 11.0328 37.5949C10.8828 37.4616 10.7078 37.3949 10.5078 37.3949H7.9578Z" fill="#0A0D14"/>
</g>
<defs>
<clipPath id="clip0_66_56">
<rect width="50" height="50" fill="white" transform="matrix(1 0 0 -1 0.0427856 50.845)"/>
</clipPath>
</defs>
</svg>
