<svg width="51" height="51" viewBox="0 0 51 51" fill="none" xmlns="http://www.w3.org/2000/svg">
<g clip-path="url(#clip0_66_60)">
<path d="M38.7505 35.3449C39.3505 35.9449 39.7505 36.6449 39.9505 37.4449C40.1505 38.2449 40.1505 39.0449 39.9505 39.8449C39.7505 40.6449 39.3505 41.3449 38.7505 41.9449L37.6005 43.0949C37.4671 43.2283 37.2921 43.2949 37.0755 43.2949C36.8588 43.2949 36.6755 43.2199 36.5255 43.0699C36.3755 42.9199 36.3005 42.7366 36.3005 42.5199C36.3005 42.3033 36.3671 42.1283 36.5005 41.9949L37.6505 40.8449C38.2505 40.2449 38.5505 39.5116 38.5505 38.6449C38.5505 37.7783 38.2505 37.0449 37.6505 36.4449L33.3005 32.0949C32.6671 31.4949 31.9255 31.1949 31.0755 31.1949C30.2255 31.1949 29.4838 31.4949 28.8505 32.0949L27.0505 33.8949C26.3171 34.6283 25.4338 34.9949 24.4005 34.9949C23.3671 34.9949 22.4671 34.6283 21.7005 33.8949L13.6505 25.8449C12.9171 25.1116 12.5505 24.2199 12.5505 23.1699C12.5505 22.1199 12.9171 21.2283 13.6505 20.4949L15.4505 18.6949C16.0838 18.0949 16.4005 17.3616 16.4005 16.4949C16.4005 15.6283 16.0838 14.8949 15.4505 14.2949L11.1005 9.94494C10.5005 9.31161 9.76714 8.99494 8.90048 8.99494C8.03381 8.99494 7.30048 9.31161 6.70048 9.94494L5.10048 11.4949C3.70048 12.8949 2.75881 14.5366 2.27548 16.4199C1.79214 18.3033 1.79214 20.1866 2.27548 22.0699C2.75881 23.9533 3.70048 25.5949 5.10048 26.9949L20.6005 42.4449C22.1338 43.9783 23.9588 44.9699 26.0755 45.4199C28.1921 45.8699 30.2671 45.6949 32.3005 44.8949C32.5005 44.8283 32.7005 44.8366 32.9005 44.9199C33.1005 45.0033 33.2338 45.1449 33.3005 45.3449C33.3671 45.5449 33.3588 45.7449 33.2755 45.9449C33.1921 46.1449 33.0505 46.2783 32.8505 46.3449C30.5505 47.2783 28.1921 47.4866 25.7755 46.9699C23.3588 46.4533 21.2671 45.3116 19.5005 43.5449L4.00048 28.0949C2.40048 26.4949 1.32548 24.6199 0.775476 22.4699C0.225476 20.3199 0.225476 18.1699 0.775476 16.0199C1.32548 13.8699 2.40048 11.9949 4.00048 10.3949L5.60048 8.84494C6.53381 7.91161 7.64214 7.44494 8.92548 7.44494C10.2088 7.44494 11.3171 7.91161 12.2505 8.84494L16.6005 13.1949C17.2005 13.7949 17.6005 14.4949 17.8005 15.2949C18.0005 16.0949 18.0005 16.8949 17.8005 17.6949C17.6005 18.4949 17.2005 19.1949 16.6005 19.7949L14.7505 21.5949C14.3171 22.0283 14.1005 22.5533 14.1005 23.1699C14.1005 23.7866 14.3171 24.3116 14.7505 24.7449L22.8005 32.7949C23.2671 33.2283 23.8005 33.4449 24.4005 33.4449C25.0005 33.4449 25.5171 33.2283 25.9505 32.7949L27.7505 30.9949C28.6838 30.0616 29.7921 29.5949 31.0755 29.5949C32.3588 29.5949 33.4671 30.0616 34.4005 30.9949L38.7505 35.3449ZM43.3005 1.29494H23.7505C22.6838 1.29494 21.7671 1.67828 21.0005 2.44494C20.2338 3.21161 19.8505 4.14494 19.8505 5.24494V13.0449C19.8505 14.1116 20.2338 15.0283 21.0005 15.7949C21.7671 16.5616 22.6838 16.9449 23.7505 16.9449H24.5505V19.4949C24.5505 19.6949 24.6255 19.8699 24.7755 20.0199C24.9255 20.1699 25.1005 20.2449 25.3005 20.2449H25.3505C25.4505 20.2449 25.7171 20.1283 26.1505 19.8949L31.3005 16.8449C31.4671 16.7116 31.5755 16.5449 31.6255 16.3449C31.6755 16.1449 31.6505 15.9449 31.5505 15.7449C31.4505 15.5449 31.2921 15.4199 31.0755 15.3699C30.8588 15.3199 30.6671 15.3616 30.5005 15.4949L26.1005 18.0949V16.1449C26.1005 15.9449 26.0255 15.7699 25.8755 15.6199C25.7255 15.4699 25.5338 15.3949 25.3005 15.3949H23.7505C23.1171 15.3949 22.5671 15.1616 22.1005 14.6949C21.6338 14.2283 21.4005 13.6783 21.4005 13.0449V5.24494C21.4005 4.57828 21.6338 4.01994 22.1005 3.56994C22.5671 3.11994 23.1171 2.89494 23.7505 2.89494H43.3005C43.9671 2.89494 44.5255 3.11994 44.9755 3.56994C45.4255 4.01994 45.6505 4.57828 45.6505 5.24494V13.0449C45.6505 13.6783 45.4255 14.2283 44.9755 14.6949C44.5255 15.1616 43.9671 15.3949 43.3005 15.3949H35.1505C34.9171 15.3949 34.7255 15.4699 34.5755 15.6199C34.4255 15.7699 34.3505 15.9449 34.3505 16.1449C34.3505 16.3449 34.4255 16.5283 34.5755 16.6949C34.7255 16.8616 34.9171 16.9449 35.1505 16.9449H43.3005C44.3671 16.9449 45.2838 16.5616 46.0505 15.7949C46.8171 15.0283 47.2005 14.1116 47.2005 13.0449V5.24494C47.2005 4.14494 46.8171 3.21161 46.0505 2.44494C45.2838 1.67828 44.3671 1.29494 43.3005 1.29494ZM26.0005 9.89494C26.6005 9.89494 27.1088 9.68661 27.5255 9.26994C27.9421 8.85328 28.1505 8.34494 28.1505 7.74494C28.1505 7.14494 27.9421 6.63661 27.5255 6.21994C27.1088 5.80328 26.6005 5.59494 26.0005 5.59494H24.6505C24.4171 5.59494 24.2255 5.66994 24.0755 5.81994C23.9255 5.96994 23.8505 6.16161 23.8505 6.39494C23.8505 6.62828 23.9255 6.81994 24.0755 6.96994C24.2255 7.11994 24.4171 7.19494 24.6505 7.19494H26.0005C26.1671 7.19494 26.3088 7.24494 26.4255 7.34494C26.5421 7.44494 26.6005 7.57828 26.6005 7.74494C26.6005 7.91161 26.5421 8.05328 26.4255 8.16994C26.3088 8.28661 26.1671 8.34494 26.0005 8.34494C25.4005 8.34494 24.8921 8.55328 24.4755 8.96994C24.0588 9.38661 23.8505 9.89494 23.8505 10.4949V11.8449C23.8505 12.0783 23.9255 12.2699 24.0755 12.4199C24.2255 12.5699 24.4171 12.6449 24.6505 12.6449H27.4005C27.6005 12.6449 27.7755 12.5699 27.9255 12.4199C28.0755 12.2699 28.1505 12.0783 28.1505 11.8449C28.1505 11.6116 28.0755 11.4283 27.9255 11.2949C27.7755 11.1616 27.6005 11.0949 27.4005 11.0949H25.4005V10.4949C25.4005 10.3283 25.4671 10.1866 25.6005 10.0699C25.7338 9.95328 25.8671 9.89494 26.0005 9.89494ZM32.8505 12.6449C33.0838 12.6449 33.2755 12.5699 33.4255 12.4199C33.5755 12.2699 33.6505 12.0783 33.6505 11.8449V6.39494C33.6505 6.16161 33.5755 5.96994 33.4255 5.81994C33.2755 5.66994 33.0838 5.59494 32.8505 5.59494C32.6171 5.59494 32.4255 5.66994 32.2755 5.81994C32.1255 5.96994 32.0505 6.16161 32.0505 6.39494V8.34494H30.9005V6.39494C30.9005 6.16161 30.8255 5.96994 30.6755 5.81994C30.5255 5.66994 30.3338 5.59494 30.1005 5.59494C29.8671 5.59494 29.6838 5.66994 29.5505 5.81994C29.4171 5.96994 29.3505 6.16161 29.3505 6.39494V9.14494C29.3505 9.34494 29.4255 9.51994 29.5755 9.66994C29.7255 9.81994 29.9005 9.89494 30.1005 9.89494H32.0505V11.8449C32.0505 12.0783 32.1255 12.2699 32.2755 12.4199C32.4255 12.5699 32.6171 12.6449 32.8505 12.6449ZM40.5005 12.6449C40.9005 12.6449 41.1505 12.4616 41.2505 12.0949L43.1505 6.64494C43.2171 6.37828 43.1755 6.13661 43.0255 5.91994C42.8755 5.70328 42.6671 5.59494 42.4005 5.59494H39.7005C39.4671 5.59494 39.2755 5.66994 39.1255 5.81994C38.9755 5.96994 38.9005 6.16161 38.9005 6.39494C38.9005 6.62828 38.9755 6.81994 39.1255 6.96994C39.2755 7.11994 39.4671 7.19494 39.7005 7.19494H41.3005L39.7505 11.5949C39.6838 11.8283 39.7255 12.0616 39.8755 12.2949C40.0255 12.5283 40.2338 12.6449 40.5005 12.6449ZM36.3005 12.0449L37.7005 6.59494C37.7671 6.36161 37.7421 6.15327 37.6255 5.96994C37.5088 5.78661 37.3421 5.66994 37.1255 5.61994C36.9088 5.56994 36.7005 5.60328 36.5005 5.71994C36.3005 5.83661 36.1838 5.99494 36.1505 6.19494L34.8005 11.6949C34.7671 11.8949 34.8005 12.0783 34.9005 12.2449C35.0005 12.4116 35.1588 12.5283 35.3755 12.5949C35.5921 12.6616 35.7838 12.6366 35.9505 12.5199C36.1171 12.4033 36.2338 12.2449 36.3005 12.0449Z" fill="#0A0D14"/>
</g>
<defs>
<clipPath id="clip0_66_60">
<rect width="50" height="50" fill="white" transform="matrix(1 0 0 -1 0.347961 50.845)"/>
</clipPath>
</defs>
</svg>
