<svg width="50" height="51" viewBox="0 0 50 51" fill="none" xmlns="http://www.w3.org/2000/svg">
<g clip-path="url(#clip0_66_63)">
<path d="M45.8656 7.39492H4.16555C2.99888 7.39492 2.01555 7.80325 1.21555 8.61992C0.415549 9.43659 0.0155487 10.4283 0.0155487 11.5949V22.8449C0.0155487 23.0783 0.098882 23.2699 0.265549 23.4199C0.432215 23.5699 0.632215 23.6449 0.865549 23.6449H44.4156C44.6489 23.6449 44.8405 23.5699 44.9906 23.4199C45.1405 23.2699 45.2155 23.0783 45.2155 22.8449C45.2155 22.6116 45.1405 22.4116 44.9906 22.2449C44.8405 22.0783 44.6489 21.9949 44.4156 21.9949H1.66555V16.5949H44.4156C44.6489 16.5949 44.8405 16.5116 44.9906 16.3449C45.1405 16.1783 45.2155 15.9783 45.2155 15.7449C45.2155 15.5116 45.1405 15.3116 44.9906 15.1449C44.8405 14.9783 44.6489 14.8949 44.4156 14.8949H1.66555V11.5949C1.66555 10.8949 1.91555 10.3033 2.41555 9.81992C2.91555 9.33659 3.49888 9.09492 4.16555 9.09492H45.8656C46.5322 9.09492 47.1156 9.33659 47.6156 9.81992C48.1156 10.3033 48.3656 10.8949 48.3656 11.5949V40.0949C48.3656 40.7949 48.1156 41.3866 47.6156 41.8699C47.1156 42.3533 46.5322 42.5949 45.8656 42.5949H4.16555C3.49888 42.5949 2.91555 42.3533 2.41555 41.8699C1.91555 41.3866 1.66555 40.7949 1.66555 40.0949V27.5949C1.66555 27.3616 1.59055 27.1699 1.44055 27.0199C1.29055 26.8699 1.09888 26.7949 0.865549 26.7949C0.632215 26.7949 0.432215 26.8699 0.265549 27.0199C0.098882 27.1699 0.0155487 27.3616 0.0155487 27.5949V40.0949C0.0155487 41.2616 0.423882 42.2533 1.24055 43.0699C2.05722 43.8866 3.03222 44.2949 4.16555 44.2949H45.8656C46.9989 44.2949 47.9739 43.8866 48.7906 43.0699C49.6072 42.2533 50.0155 41.2616 50.0155 40.0949V11.5949C50.0155 10.4283 49.6156 9.43659 48.8155 8.61992C48.0155 7.80325 47.0322 7.39492 45.8656 7.39492ZM7.61555 31.4449H14.6155C14.8489 31.4449 15.0405 31.3699 15.1905 31.2199C15.3405 31.0699 15.4155 30.8783 15.4155 30.6449C15.4155 30.4116 15.3405 30.2116 15.1905 30.0449C15.0405 29.8783 14.8489 29.7949 14.6155 29.7949H7.61555C7.38222 29.7949 7.18222 29.8783 7.01555 30.0449C6.84888 30.2116 6.76555 30.4116 6.76555 30.6449C6.76555 30.8783 6.84888 31.0699 7.01555 31.2199C7.18222 31.3699 7.38222 31.4449 7.61555 31.4449ZM7.61555 36.6949H14.6155C14.8489 36.6949 15.0405 36.6116 15.1905 36.4449C15.3405 36.2783 15.4155 36.0783 15.4155 35.8449C15.4155 35.6116 15.3405 35.4116 15.1905 35.2449C15.0405 35.0783 14.8489 34.9949 14.6155 34.9949H7.61555C7.38222 34.9949 7.18222 35.0783 7.01555 35.2449C6.84888 35.4116 6.76555 35.6116 6.76555 35.8449C6.76555 36.0783 6.84888 36.2783 7.01555 36.4449C7.18222 36.6116 7.38222 36.6949 7.61555 36.6949Z" fill="#0A0D14"/>
</g>
<defs>
<clipPath id="clip0_66_63">
<rect width="50" height="50" fill="white" transform="matrix(1 0 0 -1 0.000549316 50.845)"/>
</clipPath>
</defs>
</svg>
